<?xml version="1.0" encoding="UTF-8" standalone="no"?>
<!-- Created with Inkscape (http://www.inkscape.org/) -->

<svg
   width="33.434471mm"
   height="33.435303mm"
   viewBox="0 0 33.43447 33.435303"
   version="1.1"
   id="svg1"
   xml:space="preserve"
   sodipodi:docname="vite.svg"
   xmlns:inkscape="http://www.inkscape.org/namespaces/inkscape"
   xmlns:sodipodi="http://sodipodi.sourceforge.net/DTD/sodipodi-0.dtd"
   xmlns="http://www.w3.org/2000/svg"
   xmlns:svg="http://www.w3.org/2000/svg"><sodipodi:namedview
     id="namedview1"
     pagecolor="#ffffff"
     bordercolor="#000000"
     borderopacity="0.25"
     inkscape:showpageshadow="2"
     inkscape:pageopacity="0.0"
     inkscape:pagecheckerboard="0"
     inkscape:deskcolor="#d1d1d1"
     inkscape:document-units="mm"
     showborder="false"
     showguides="false" /><defs
     id="defs1"><linearGradient
       id="swatch4"
       inkscape:swatch="solid"><stop
         style="stop-color:#ffffff;stop-opacity:1;"
         offset="0"
         id="stop4" /></linearGradient></defs><g
     id="g4"
     transform="matrix(0.82969553,0,0,0.82969553,-3.9018258,-3.9009961)"
     style="stroke-width:1.59456;stroke-dasharray:none"
     inkscape:export-filename="vite.svg"
     inkscape:export-xdpi="19.268"
     inkscape:export-ydpi="19.268"><path
       id="circle1"
       style="fill:#93e6b3;fill-opacity:0.969512"
       d="M 45,28 A 17,17 0 0 1 28,45 17,17 0 0 1 11,28 17,17 0 0 1 28,11 17,17 0 0 1 45,28 Z" /><path
       fill="none"
       stroke="#18193f"
       stroke-linecap="round"
       stroke-linejoin="round"
       stroke-width="3"
       d="M 39.982,14.675 C 36.773,9.186 30.817,5.499 24,5.499 c -10.217,0 -18.5,8.283 -18.5,18.5 0,0.7 0.039,1.39 0.115,2.07"
       id="path1"
       style="fill:none;stroke:#d6d6d6;stroke-width:1.59456;stroke-dasharray:none;stroke-opacity:1" /><path
       fill="none"
       stroke="#18193f"
       stroke-linecap="round"
       stroke-linejoin="round"
       stroke-width="3"
       d="m 7.84,32.993 -2.301,8.238 c -0.21,0.75 0.481,1.442 1.232,1.232 l 8.242,-2.3 c 2.662,1.483 5.724,2.336 8.987,2.336 10.217,0 18.5,-8.283 18.5,-18.5 0,-0.427 -0.014,-0.85 -0.043,-1.269"
       id="path2"
       style="stroke:#d6d6d6;stroke-width:1.59456;stroke-dasharray:none;stroke-opacity:1" /><path
       fill="#18193f"
       d="m 33.357,30.651 c -0.398,1.116 -2.348,2.191 -3.224,2.269 -0.876,0.08 -1.697,0.396 -5.731,-1.194 -4.855,-1.914 -7.92,-6.891 -8.158,-7.208 -0.239,-0.32 -1.95,-2.589 -1.95,-4.939 0,-2.35 1.234,-3.506 1.672,-3.982 C 16.405,15.119 16.922,15 17.241,15 c 0.318,0 0.637,0 0.915,0.011 0.341,0.013 0.718,0.031 1.075,0.825 0.425,0.945 1.353,3.307 1.472,3.546 0.119,0.239 0.199,0.519 0.04,0.836 -0.159,0.318 -0.239,0.517 -0.476,0.796 -0.239,0.279 -0.501,0.622 -0.716,0.836 -0.239,0.237 -0.488,0.498 -0.21,0.974 0.279,0.478 1.236,2.042 2.656,3.307 1.826,1.627 3.362,2.13 3.841,2.371 0.478,0.239 0.756,0.199 1.035,-0.121 0.279,-0.318 1.194,-1.393 1.512,-1.871 0.318,-0.478 0.637,-0.398 1.075,-0.239 0.438,0.159 2.786,1.315 3.263,1.554 0.478,0.239 0.796,0.358 0.915,0.557 0.117,0.197 0.117,1.153 -0.281,2.269 z"
       id="path3"
       style="fill:#fcfcfc;fill-opacity:1;stroke-width:1.59456;stroke-dasharray:none" /></g></svg>
