<?xml version="1.0" encoding="utf-8"?>
<!-- Uploaded to: SVG Repo, www.svgrepo.com, Generator: SVG Repo Mixer Tools -->
<svg width="800px" height="800px" viewBox="0 0 1024 1024" class="icon"  version="1.1" xmlns="http://www.w3.org/2000/svg"><path d="M512 669.824a155.584 155.584 0 0 0 155.136-155.136V223.808c0-85.312-69.824-155.136-155.136-155.136S356.864 138.496 356.864 223.808v290.88A155.584 155.584 0 0 0 512 669.824z" fill="" /><path d="M512 625.024a110.4 110.4 0 0 1-110.336-110.336V223.808c0-60.864 49.472-110.336 110.336-110.336s110.336 49.472 110.336 110.336v290.88c0 60.864-49.472 110.336-110.336 110.336z" fill="#FFAF2F" /><path d="M753.216 398.336a19.2 19.2 0 0 0-19.072-18.624 19.328 19.328 0 0 0-19.136 18.624h-0.32v117.632A203.008 203.008 0 0 1 512 718.976a203.136 203.136 0 0 1-202.752-203.008V398.336h-0.32a19.2 19.2 0 0 0-19.072-18.624 19.328 19.328 0 0 0-19.136 18.624h-0.256v117.632c0 126.656 98.176 229.696 222.144 239.808v108.672H376.256a19.392 19.392 0 1 0 0 38.848h271.488a19.392 19.392 0 0 0 0-38.848H531.392V755.84c123.968-10.112 222.144-113.216 222.144-239.808V398.336h-0.32z" fill="" /><path d="M753.216 398.336a19.2 19.2 0 0 0-19.072-18.624 19.328 19.328 0 0 0-19.136 18.624h-0.32v117.632A203.008 203.008 0 0 1 512 718.976a203.136 203.136 0 0 1-202.752-203.008V398.336h-0.32a19.2 19.2 0 0 0-19.072-18.624 19.328 19.328 0 0 0-19.136 18.624h-0.256v117.632c0 126.656 98.176 229.696 222.144 239.808v108.672H376.256a19.392 19.392 0 1 0 0 38.848h271.488a19.392 19.392 0 0 0 0-38.848H531.392V755.84c123.968-10.112 222.144-113.216 222.144-239.808V398.336h-0.32zM390.72 305.344a16 16 0 0 1 0-32h129.344a16 16 0 0 1 0 32H390.72zM390.72 379.712a16 16 0 0 1 0-32h129.344a16 16 0 0 1 0 32H390.72z" fill="" /><path d="M390.72 454.08a16 16 0 0 1 0-32h129.344a16 16 0 0 1 0 32H390.72z" fill="" /></svg>