<?xml version="1.0" encoding="utf-8"?>
<!-- Uploaded to: SVG Repo, www.svgrepo.com, Generator: SVG Repo Mixer Tools -->
<svg width="800px" height="800px" viewBox="0 0 64 64" xmlns="http://www.w3.org/2000/svg">
  <g fill="none" fill-rule="evenodd">
    <rect width="41" height="56" x="15" y="7" fill="#5EA7FF" rx="3"/>
    <circle cx="35.5" cy="3.5" r="2.5" fill="#80D25B"/>
    <rect width="33" height="48" x="19" y="11" fill="#ECECEC"/>
    <path fill="#5EA7FF" d="M31.3214286,24 C28.7178005,24 27,26.9900983 27,30.6785714 C27,34.3670446 28.7178005,46 31.3214286,46 C32.8402925,46 33.0128203,36.3395704 35.0535714,36.3308234 C37.4871797,36.3395704 37.2668503,46 38.7857143,46 C41.3893424,46 43.1071429,34.3670446 43.1071429,30.6785714 C43.1071429,26.9900983 41.3893424,24 38.7857143,24 C37.5416667,24 36.297619,25.1785714 35.0535714,25.1785714 C33.8095238,25.1785714 32.5654762,24 31.3214286,24 Z"/>
    <path stroke="#979797" stroke-linecap="square" stroke-width="2" d="M24 16L40.0312195 16M24 50L40.0312195 50M24 54.1421356L32 54.1421356"/>
    <path fill="#80D25B" d="M25,8 C25,5.790861 26.7904482,4 28.9993692,4 L42.0006308,4 C44.2094214,4 46,5.79535615 46,8 L46,12 L25,12 L25,8 Z"/>
    <path stroke="#979797" stroke-linecap="square" stroke-width="2" d="M24,20 L47,20"/>
  </g>
</svg>