<?xml version="1.0" encoding="iso-8859-1"?>
<!-- Uploaded to: SVG Repo, www.svgrepo.com, Generator: SVG Repo Mixer Tools -->
<!DOCTYPE svg PUBLIC "-//W3C//DTD SVG 1.1//EN" "http://www.w3.org/Graphics/SVG/1.1/DTD/svg11.dtd">
<svg height="800px" width="800px" version="1.1" id="Capa_1" xmlns="http://www.w3.org/2000/svg" xmlns:xlink="http://www.w3.org/1999/xlink" 
	 viewBox="0 0 442.643 442.643" xml:space="preserve">
<g>
	<path style="fill:#F98680;" d="M303.657,431.706c-35.29,0-64-28.71-64-64s28.71-64,64-64s64,28.71,64,64
		S338.947,431.706,303.657,431.706z M303.657,311.706c-30.879,0-56,25.122-56,56s25.121,56,56,56s56-25.122,56-56
		S334.536,311.706,303.657,311.706z"/>
	<g>
		<circle style="fill:#FFE473;" cx="142.113" cy="283.707" r="34.331"/>
		<circle style="fill:#FFE473;" cx="288.938" cy="283.707" r="34.331"/>
	</g>
	<path style="fill:#FFE473;" d="M306.501,248.168c0,1.85-0.06,3.72-0.17,5.6c-0.12,1.94-0.31,3.9-0.55,5.87l-8.4,66.98
		c-5.17,41.27-40.26,72.24-81.86,72.24c-41.6,0-76.69-30.97-81.86-72.24l-8.37-66.86c-0.01,0.01-0.01,0.01-0.01,0l-0.01-0.12
		c-0.24-1.97-0.43-3.93-0.55-5.88c-3.07-50.29,35.65-93.73,86.13-96.26c1.45-0.08,2.91-0.11,4.38-0.12h0.29
		c45.42,0,82.32,33.05,89.65,75.34C306.051,237.748,306.501,242.918,306.501,248.168z"/>
	<path style="fill:#808080;" d="M306.501,248.168c0,1.85-0.06,3.72-0.17,5.6c-35.44,0.19-51.9-28.19-51.9-28.19
		c-56.67,42.67-129.7,28.19-129.7,28.19l-0.01-0.01c-3.07-50.29,35.65-93.73,86.13-96.26c1.45-0.08,2.91-0.11,4.38-0.12h0.29
		c45.42,0,82.32,33.05,89.65,75.34C306.051,237.748,306.501,242.918,306.501,248.168z"/>
	<path style="fill:#26A3BF;" d="M146.559,432.641H52.816c-11.839,0-21.471-9.632-21.471-21.471v-47.897
		c0-11.839,9.632-21.471,21.471-21.471h93.743c11.839,0,21.471,9.632,21.471,21.471v47.897
		C168.029,423.01,158.397,432.641,146.559,432.641z M52.816,350.803c-6.876,0-12.471,5.594-12.471,12.471v47.897
		c0,6.876,5.594,12.471,12.471,12.471h93.743c6.876,0,12.471-5.594,12.471-12.471v-47.897c0-6.876-5.594-12.471-12.471-12.471
		H52.816z"/>
	<path style="fill:#F98680;" d="M79.029,112.306h-9V81.932c0-10.947,8.906-19.854,19.854-19.854h84.745v9H89.883
		c-5.985,0-10.854,4.869-10.854,10.854V112.306z"/>
	<path style="fill:#F98680;" d="M420.172,278.078H255.788c-12.391,0-22.471-10.08-22.471-22.471v-79.449
		c0-12.391,10.08-22.471,22.471-22.471h164.384c12.391,0,22.471,10.08,22.471,22.471v79.449
		C442.643,267.998,432.563,278.078,420.172,278.078z M255.788,164.687c-6.325,0-11.471,5.146-11.471,11.471v79.449
		c0,6.325,5.146,11.471,11.471,11.471h164.384c6.325,0,11.471-5.146,11.471-11.471v-79.449c0-6.325-5.146-11.471-11.471-11.471
		H255.788z"/>
	<path style="fill:#FFE473;" d="M127.529,182.806H21.471C9.632,182.806,0,173.174,0,161.335v-32.059
		c0-11.839,9.632-21.471,21.471-21.471h106.059c11.839,0,21.471,9.632,21.471,21.471v32.059
		C149,173.174,139.368,182.806,127.529,182.806z M21.471,116.806C14.594,116.806,9,122.4,9,129.277v32.059
		c0,6.876,5.594,12.471,12.471,12.471h106.059c6.876,0,12.471-5.594,12.471-12.471v-32.059c0-6.876-5.594-12.471-12.471-12.471
		H21.471z"/>
	<path style="fill:#26A3BF;" d="M313.32,110.078H191.598c-11.839,0-21.471-9.632-21.471-21.471V31.472
		c0-11.839,9.632-21.471,21.471-21.471H313.32c11.839,0,21.471,9.632,21.471,21.471v57.135
		C334.791,100.446,325.159,110.078,313.32,110.078z M191.598,19.001c-6.876,0-12.471,5.594-12.471,12.471v57.135
		c0,6.876,5.594,12.471,12.471,12.471H313.32c6.876,0,12.471-5.594,12.471-12.471V31.472c0-6.876-5.595-12.471-12.471-12.471
		H191.598z"/>
	<path style="fill:#F98680;" d="M186.103,350.095c16.263,16.263,42.583,16.263,58.846,0"/>
</g>
</svg>